<svg width="401" height="401" viewBox="0 0 401 401" fill="none" xmlns="http://www.w3.org/2000/svg">
<g clip-path="url(#clip0_4_178)">
<rect width="401" height="401" fill="white"/>
<rect width="401" height="401" fill="#044752"/>
<g clip-path="url(#clip1_4_178)">
<path fill-rule="evenodd" clip-rule="evenodd" d="M183.18 -15.54C192.9 -15.54 202.62 -15.54 212.34 -15.54C235.967 -13.5828 259.007 -8.36277 281.46 0.120001C361.636 36.1997 406.636 97.9399 416.46 185.34C416.46 194.34 416.46 203.34 416.46 212.34C408.375 297.827 365.895 359.568 289.02 397.56C264.372 408.132 238.812 414.433 212.34 416.46C203.7 416.46 195.06 416.46 186.42 416.46C101.88 407.69 40.8596 365.211 3.35996 289.02C-7.21288 264.37 -13.5129 238.811 -15.54 212.34C-15.54 203.34 -15.54 194.34 -15.54 185.34C-13.645 160.719 -7.70496 136.959 2.27996 114.06C38.918 37.8677 99.2175 -5.33222 183.18 -15.54Z" fill="#044752"/>
<path fill-rule="evenodd" clip-rule="evenodd" d="M70.86 109.74C111.18 109.74 151.5 109.74 191.82 109.74C191.82 110.82 191.82 111.9 191.82 112.98C151.5 112.98 111.18 112.98 70.86 112.98C70.86 111.9 70.86 110.82 70.86 109.74Z" fill="#084355"/>
<path fill-rule="evenodd" clip-rule="evenodd" d="M205.86 117.3C160.14 117.3 114.42 117.3 68.7 117.3C69.3378 116.597 70.0578 115.877 70.86 115.14C111.18 113.7 151.5 113.7 191.82 115.14C196.661 115.86 201.341 116.581 205.86 117.3Z" fill="#104E51"/>
<path fill-rule="evenodd" clip-rule="evenodd" d="M68.7 117.3C114.42 117.3 160.14 117.3 205.86 117.3C205.86 124.86 205.86 132.42 205.86 139.98C160.14 139.98 114.42 139.98 68.7 139.98C68.7 132.42 68.7 124.86 68.7 117.3Z" fill="#FBFDFD"/>
<path fill-rule="evenodd" clip-rule="evenodd" d="M330.06 282.54C318.373 283.615 306.493 283.974 294.42 283.62C264.351 255.89 234.831 227.63 205.86 198.84C233.509 171.912 261.229 144.912 289.02 117.84C300.18 117.12 311.34 117.12 322.5 117.84C295.439 144.543 268.079 170.823 240.42 196.68C270.486 225.126 300.365 253.746 330.06 282.54Z" fill="#F8FBFB"/>
<path fill-rule="evenodd" clip-rule="evenodd" d="M123.78 163.74C132.78 163.74 141.78 163.74 150.78 163.74C150.78 203.7 150.78 243.66 150.78 283.62C141.78 283.62 132.78 283.62 123.78 283.62C123.78 243.66 123.78 203.7 123.78 163.74Z" fill="#EBFAFC"/>
<path fill-rule="evenodd" clip-rule="evenodd" d="M127.02 164.82C134.58 164.82 142.14 164.82 149.7 164.82C149.88 202.622 149.7 240.422 149.16 278.22C147.302 281.586 144.602 282.306 141.06 280.38C137.332 282.704 133.371 283.065 129.18 281.46C128.727 280.194 128.008 279.114 127.02 278.22C125.658 239.921 125.658 202.121 127.02 164.82Z" fill="#FCFDFD"/>
<path fill-rule="evenodd" clip-rule="evenodd" d="M330.06 282.54C330.646 282.605 331.006 282.964 331.14 283.62C318.728 285.05 306.488 285.05 294.42 283.62C306.493 283.974 318.373 283.615 330.06 282.54Z" fill="#53787E"/>
</g>
</g>
<defs>
<clipPath id="clip0_4_178">
<rect width="401" height="401" fill="white"/>
</clipPath>
<clipPath id="clip1_4_178">
<rect width="432" height="432" fill="white" transform="translate(-15 -15)"/>
</clipPath>
</defs>
</svg>
