<svg width="401" height="401" viewBox="0 0 401 401" fill="none" xmlns="http://www.w3.org/2000/svg">
<g clip-path="url(#clip0_5_244)">
<rect width="401" height="401" fill="white"/>
<rect width="401" height="401" fill="#F8FBFB"/>
<path d="M168.656 168.434L161.575 105.848L95.7921 95.7727L105.932 161.368L168.656 168.434Z" fill="#FA7525"/>
<path d="M233.223 168.434L295.947 161.368L306.045 95.7727L240.304 105.848L233.223 168.434Z" fill="#FA7525"/>
<path d="M200.918 155.097L240.262 105.848L200.918 52.3348L161.575 105.848L200.918 155.097Z" fill="#FA7525"/>
<path d="M295.947 161.41L246.589 200.667L295.947 239.883L349.578 200.667L295.947 161.41Z" fill="#FA7525"/>
<path d="M233.223 232.859L240.304 295.445L306.045 305.562L295.947 239.925L233.223 232.859Z" fill="#FA7525"/>
<path d="M200.918 246.196L161.575 295.445L200.918 349L240.262 295.445L200.918 246.196Z" fill="#FA7525"/>
<path d="M155.248 200.667L105.89 161.41L52.2583 200.667L105.89 239.883L155.248 200.667Z" fill="#FA7525"/>
<path d="M168.656 232.859L105.932 239.925L95.7921 305.562L161.575 295.445L168.656 232.859Z" fill="#FA7525"/>
</g>
<defs>
<clipPath id="clip0_5_244">
<rect width="401" height="401" fill="white"/>
</clipPath>
</defs>
</svg>
