<svg width="401" height="401" viewBox="0 0 401 401" fill="none" xmlns="http://www.w3.org/2000/svg">
<g clip-path="url(#clip0_3_17)">
<rect width="401" height="401" fill="white"/>
<rect width="401" height="401" fill="black"/>
<path d="M280.258 177.087L311.642 111H293.336V108H334.964V111H318.431L283.693 184.324L280.258 177.087ZM107.597 108H66V111H73.4058L159.959 293.501L195.828 219.333L230.993 293.501L266.755 219.573L299.509 291.009H293.412V294H335V291.009H327.633L240.964 108.394L209.128 175.44L212.513 182.705L231.532 142.694L254.834 193.538H217.605L220.074 198.897H257.304L259.619 203.987H222.466L224.973 209.327H262.048L263.167 211.752L240.349 258.916L172.563 111H179.355V108H137.757V111H145.162L192.095 211.836L169.303 258.913L101.51 111H107.597V108ZM239.15 126.645L242.102 120.346L321.422 291.009H315.692L239.15 126.645ZM160.671 111H166.382L237.782 264.235L234.773 270.419L160.671 111ZM166.738 264.235L163.749 270.419L89.6185 111H95.3654L166.738 264.235Z" fill="white"/>
</g>
<defs>
<clipPath id="clip0_3_17">
<rect width="401" height="401" fill="white"/>
</clipPath>
</defs>
</svg>
